<?xml version="1.0" encoding="utf-8"?>
<!-- Generator: Adobe Illustrator 18.0.0, SVG Export Plug-In . SVG Version: 6.00 Build 0)  -->
<!DOCTYPE svg PUBLIC "-//W3C//DTD SVG 1.1//EN" "http://www.w3.org/Graphics/SVG/1.1/DTD/svg11.dtd">
<svg version="1.1" id="Layer_1" xmlns="http://www.w3.org/2000/svg" xmlns:xlink="http://www.w3.org/1999/xlink" x="0px" y="0px"
	 viewBox="0 0 126.8 24.8" enable-background="new 0 0 126.8 24.8" xml:space="preserve">
<g>
	<circle fill="#455653" cx="35.8" cy="12.7" r="2.7"/>
	<circle fill="#455653" cx="53.8" cy="12.7" r="2.7"/>
	<circle fill="#455653" cx="70.4" cy="12.7" r="2.7"/>
	<circle fill="#455653" cx="88.4" cy="12.7" r="2.7"/>
	<circle fill="#455653" cx="106.4" cy="12.7" r="2.7"/>
	<path fill="#455653" d="M41.8,2.1C41.5,4,43.1,5.6,45,5.3c1-0.2,1.9-1.1,2.1-2.1c0.4-1.9-1.3-3.5-3.1-3.1C42.9,0.2,42,1.1,41.8,2.1
		z"/>
	<path fill="#455653" d="M58.5,2.1c-0.4,1.9,1.3,3.5,3.1,3.1c1-0.2,1.9-1.1,2.1-2.1c0.4-1.9-1.3-3.5-3.1-3.1
		C59.5,0.2,58.7,1.1,58.5,2.1z"/>
	<path fill="#455653" d="M76.5,2.1c-0.4,1.9,1.3,3.5,3.1,3.1c1-0.2,1.9-1.1,2.1-2.1c0.4-1.9-1.3-3.5-3.1-3.1
		C77.6,0.2,76.7,1.1,76.5,2.1z"/>
	<path fill="#455653" d="M94.5,2.1c-0.4,1.9,1.3,3.5,3.1,3.1c1-0.2,1.9-1.1,2.1-2.1c0.4-1.9-1.3-3.5-3.1-3.1
		C95.6,0.2,94.7,1.1,94.5,2.1z"/>
	<path fill="#455653" d="M41.8,21.5c-0.4,1.9,1.3,3.5,3.1,3.1c1-0.2,1.9-1.1,2.1-2.1c0.4-1.9-1.3-3.5-3.1-3.1
		C42.9,19.6,42,20.4,41.8,21.5z"/>
	<circle fill="#455653" cx="19.8" cy="12.7" r="2.7"/>
	<circle fill="#455653" cx="2.7" cy="12.7" r="2.7"/>
	<circle fill="#455653" cx="124.1" cy="12.7" r="2.7"/>
	<path fill="#455653" d="M25.8,2.1C25.5,4,27.1,5.6,29,5.3c1-0.2,1.9-1.1,2.1-2.1c0.4-1.9-1.3-3.5-3.1-3.1C26.9,0.2,26,1.1,25.8,2.1
		z"/>
	<path fill="#455653" d="M8.7,2.1C8.4,4,10,5.6,11.9,5.3c1-0.2,1.9-1.1,2.1-2.1c0.4-1.9-1.3-3.5-3.1-3.1C9.8,0.2,8.9,1.1,8.7,2.1z"
		/>
	<path fill="#455653" d="M8.7,21.6c-0.4,1.9,1.3,3.5,3.1,3.1c1-0.2,1.9-1.1,2.1-2.1c0.4-1.9-1.3-3.5-3.1-3.1
		C9.8,19.7,8.9,20.6,8.7,21.6z"/>
	<path fill="#455653" d="M25.8,21.5c-0.4,1.9,1.3,3.5,3.1,3.1c1-0.2,1.9-1.1,2.1-2.1c0.4-1.9-1.3-3.5-3.1-3.1
		C26.9,19.6,26,20.4,25.8,21.5z"/>
	<path fill="#455653" d="M58.5,21.5c-0.4,1.9,1.3,3.5,3.1,3.1c1-0.2,1.9-1.1,2.1-2.1c0.4-1.9-1.3-3.5-3.1-3.1
		C59.5,19.6,58.7,20.4,58.5,21.5z"/>
	<path fill="#455653" d="M76.5,21.5c-0.4,1.9,1.3,3.5,3.1,3.1c1-0.2,1.9-1.1,2.1-2.1c0.4-1.9-1.3-3.5-3.1-3.1
		C77.6,19.6,76.7,20.4,76.5,21.5z"/>
	<path fill="#455653" d="M94.5,21.5c-0.4,1.9,1.3,3.5,3.1,3.1c1-0.2,1.9-1.1,2.1-2.1c0.4-1.9-1.3-3.5-3.1-3.1
		C95.6,19.6,94.7,20.4,94.5,21.5z"/>
	<path fill="#455653" d="M113.1,2.1c-0.4,1.9,1.3,3.5,3.1,3.1c1-0.2,1.9-1.1,2.1-2.1c0.4-1.9-1.3-3.5-3.1-3.1
		C114.2,0.2,113.3,1.1,113.1,2.1z"/>
	<path fill="#455653" d="M113.1,21.5c-0.4,1.9,1.3,3.5,3.1,3.1c1-0.2,1.9-1.1,2.1-2.1c0.4-1.9-1.3-3.5-3.1-3.1
		C114.2,19.6,113.3,20.4,113.1,21.5z"/>
</g>
</svg>
