<?xml version="1.0" encoding="utf-8"?>
<!-- Generator: Adobe Illustrator 18.0.0, SVG Export Plug-In . SVG Version: 6.00 Build 0)  -->
<!DOCTYPE svg PUBLIC "-//W3C//DTD SVG 1.1//EN" "http://www.w3.org/Graphics/SVG/1.1/DTD/svg11.dtd">
<svg version="1.1" id="Layer_1" xmlns="http://www.w3.org/2000/svg" xmlns:xlink="http://www.w3.org/1999/xlink" x="0px" y="0px"
	 viewBox="0 0 35.7 9.6" enable-background="new 0 0 35.7 9.6" xml:space="preserve">
<path id="s2-slider-3-hint" fill="#EDD99A" d="M-96.1-34.8c-0.3,1.5,1,2.9,2.6,2.6c0.9-0.2,1.6-0.9,1.7-1.7c0.3-1.5-1-2.9-2.6-2.6
	C-95.2-36.4-95.9-35.7-96.1-34.8z"/>
<g>
	<path fill="#455653" d="M20-40.3h3.4v-3.5h2.4v9h-2.4v-3.7H20v3.7h-2.4v-9H20V-40.3z"/>
	<path fill="#455653" d="M34.4-36.3H31l-0.5,1.6H28l3.4-9H34l3.4,9h-2.5L34.4-36.3z M33.8-38.1l-1.1-3l-1.1,3H33.8z"/>
	<path fill="#455653" d="M47.2-34.7h-2.9L42-38.2v3.5h-2.4v-9h3.7c0.5,0,0.9,0.1,1.3,0.2c0.4,0.1,0.7,0.4,0.9,0.6
		c0.2,0.3,0.4,0.6,0.6,0.9c0.1,0.3,0.2,0.7,0.2,1.1c0,0.7-0.2,1.2-0.5,1.7c-0.3,0.4-0.8,0.7-1.5,0.9L47.2-34.7z M42-39.7h0.4
		c0.5,0,0.8-0.1,1.1-0.3s0.4-0.5,0.4-0.8c0-0.4-0.1-0.6-0.4-0.8c-0.2-0.2-0.6-0.3-1.1-0.3H42V-39.7z"/>
	<path fill="#455653" d="M49.4-43.7h3.5c0.6,0,1.2,0.1,1.7,0.4s1,0.6,1.4,1c0.4,0.4,0.7,0.9,1,1.4c0.2,0.5,0.3,1.1,0.3,1.7
		c0,0.6-0.1,1.2-0.3,1.7s-0.5,1-0.9,1.4c-0.4,0.4-0.9,0.7-1.4,1s-1.1,0.4-1.7,0.4h-3.5V-43.7z M51.7-36.7h0.5c0.4,0,0.8-0.1,1.1-0.2
		c0.3-0.1,0.6-0.3,0.8-0.5c0.2-0.2,0.4-0.5,0.5-0.8c0.1-0.3,0.2-0.6,0.2-1c0-0.4-0.1-0.7-0.2-1c-0.1-0.3-0.3-0.6-0.5-0.8
		c-0.2-0.2-0.5-0.4-0.8-0.5s-0.7-0.2-1.1-0.2h-0.5V-36.7z"/>
</g>
<g>
	<path fill="#455653" d="M5.1,2.2H2.4v1.5H5v2H2.4v1.6h2.8v2H0v-9h5.1V2.2z"/>
	<path fill="#455653" d="M13.6,7.7h-3.4L9.7,9.3H7.2l3.4-9h2.6l3.4,9h-2.5L13.6,7.7z M13,5.9l-1.1-3l-1.1,3H13z"/>
	<path fill="#455653" d="M23.8,2.6c-0.3-0.2-0.5-0.4-0.8-0.5S22.6,2,22.3,2C22,2,21.8,2,21.6,2.2c-0.2,0.1-0.3,0.3-0.3,0.6
		c0,0.2,0,0.3,0.1,0.4c0.1,0.1,0.2,0.2,0.4,0.3c0.2,0.1,0.3,0.1,0.5,0.2c0.2,0.1,0.4,0.1,0.6,0.2c0.8,0.3,1.3,0.6,1.7,1
		c0.4,0.4,0.5,1,0.5,1.7c0,0.5-0.1,0.9-0.2,1.3c-0.2,0.4-0.4,0.7-0.7,1c-0.3,0.3-0.7,0.5-1.1,0.6c-0.4,0.1-0.9,0.2-1.5,0.2
		c-1.1,0-2.2-0.3-3.2-1l1-1.9c0.4,0.3,0.7,0.5,1,0.7c0.3,0.2,0.7,0.2,1,0.2c0.4,0,0.7-0.1,0.9-0.3c0.2-0.2,0.3-0.4,0.3-0.6
		c0-0.1,0-0.3-0.1-0.4c0-0.1-0.1-0.2-0.2-0.3c-0.1-0.1-0.3-0.2-0.4-0.2c-0.2-0.1-0.4-0.2-0.7-0.2c-0.3-0.1-0.6-0.2-0.9-0.3
		c-0.3-0.1-0.6-0.3-0.8-0.5c-0.2-0.2-0.4-0.4-0.6-0.7c-0.1-0.3-0.2-0.7-0.2-1.1c0-0.4,0.1-0.9,0.2-1.2c0.1-0.4,0.4-0.7,0.6-0.9
		c0.3-0.3,0.6-0.5,1-0.6C21,0.1,21.5,0,22,0c0.4,0,0.9,0.1,1.4,0.2c0.5,0.1,1,0.3,1.4,0.5L23.8,2.6z"/>
	<path fill="#455653" d="M30,5l-3.3-4.7h2.8l1.7,2.5l1.7-2.5h2.8L32.4,5v4.3H30V5z"/>
</g>
<path fill="#455653" d="M-121.7,29.4v9.2c0,0.4,0.3,0.7,0.7,0.7H6.2c0.4,0,0.7-0.3,0.7-0.7v-9.2c0-0.4-0.3-0.7-0.7-0.7H-121
	C-121.4,28.7-121.7,29.1-121.7,29.4z"/>
</svg>
