<?xml version="1.0" encoding="utf-8"?>
<!-- Generator: Adobe Illustrator 18.0.0, SVG Export Plug-In . SVG Version: 6.00 Build 0)  -->
<!DOCTYPE svg PUBLIC "-//W3C//DTD SVG 1.1//EN" "http://www.w3.org/Graphics/SVG/1.1/DTD/svg11.dtd">
<svg version="1.1" id="Layer_1" xmlns="http://www.w3.org/2000/svg" xmlns:xlink="http://www.w3.org/1999/xlink" x="0px" y="0px"
	 viewBox="0 0 39.7 9" enable-background="new 0 0 39.7 9" xml:space="preserve">
<path id="s2-slider-3-hint" fill="#EDD99A" d="M-30.8-21c-0.3,1.5,1,2.9,2.6,2.6c0.9-0.2,1.6-0.9,1.7-1.7c0.3-1.5-1-2.9-2.6-2.6
	C-29.9-22.6-30.6-21.9-30.8-21z"/>
<g>
	<path fill="#455653" d="M2.4,3.5h3.4V0h2.4v9H5.7V5.3H2.4V9H0V0h2.4V3.5z"/>
	<path fill="#455653" d="M16.7,7.5h-3.4L12.8,9h-2.5l3.4-9h2.6l3.4,9h-2.5L16.7,7.5z M16.1,5.7l-1.1-3l-1.1,3H16.1z"/>
	<path fill="#455653" d="M29.5,9h-2.9l-2.2-3.5V9H22V0h3.7c0.5,0,0.9,0.1,1.3,0.2c0.4,0.1,0.7,0.4,0.9,0.6c0.2,0.3,0.4,0.6,0.6,0.9
		c0.1,0.3,0.2,0.7,0.2,1.1c0,0.7-0.2,1.2-0.5,1.7c-0.3,0.4-0.8,0.7-1.5,0.9L29.5,9z M24.4,4h0.4c0.5,0,0.8-0.1,1.1-0.3
		s0.4-0.5,0.4-0.8c0-0.4-0.1-0.6-0.4-0.8c-0.2-0.2-0.6-0.3-1.1-0.3h-0.4V4z"/>
	<path fill="#455653" d="M31.7,0h3.5c0.6,0,1.2,0.1,1.7,0.4s1,0.6,1.4,1c0.4,0.4,0.7,0.9,1,1.4c0.2,0.5,0.3,1.1,0.3,1.7
		c0,0.6-0.1,1.2-0.3,1.7s-0.5,1-0.9,1.4c-0.4,0.4-0.9,0.7-1.4,1S35.8,9,35.2,9h-3.5V0z M34.1,7.1h0.5c0.4,0,0.8-0.1,1.1-0.2
		c0.3-0.1,0.6-0.3,0.8-0.5c0.2-0.2,0.4-0.5,0.5-0.8c0.1-0.3,0.2-0.6,0.2-1c0-0.4-0.1-0.7-0.2-1c-0.1-0.3-0.3-0.6-0.5-0.8
		c-0.2-0.2-0.5-0.4-0.8-0.5S35,2,34.6,2h-0.5V7.1z"/>
</g>
<g>
	<text transform="matrix(1 0 0 1 90.3851 5.7144)" fill="#455653" font-family="'Futura-Bold'" font-size="12" letter-spacing="1">EASY</text>
</g>
<path fill="#455653" d="M-56.3,43.2v9.2c0,0.4,0.3,0.7,0.7,0.7H71.5c0.4,0,0.7-0.3,0.7-0.7v-9.2c0-0.4-0.3-0.7-0.7-0.7H-55.6
	C-56,42.5-56.3,42.8-56.3,43.2z"/>
</svg>
