<?xml version="1.0" encoding="utf-8"?>
<!-- Generator: Adobe Illustrator 18.0.0, SVG Export Plug-In . SVG Version: 6.00 Build 0)  -->
<!DOCTYPE svg PUBLIC "-//W3C//DTD SVG 1.1//EN" "http://www.w3.org/Graphics/SVG/1.1/DTD/svg11.dtd">
<svg version="1.1" id="Layer_1" xmlns="http://www.w3.org/2000/svg" xmlns:xlink="http://www.w3.org/1999/xlink" x="0px" y="0px"
	 viewBox="0 0 12.2 4.4" enable-background="new 0 0 12.2 4.4" xml:space="preserve">
<g id="s2-slider-1-hint">
	<path fill="#EDD99A" d="M0,1.8c-0.3,1.5,1,2.9,2.6,2.6c0.9-0.2,1.6-0.9,1.7-1.7c0.3-1.5-1-2.9-2.6-2.6C0.9,0.2,0.2,0.9,0,1.8z"/>
	<path fill="#EDD99A" d="M7.9,1.8c-0.3,1.5,1,2.9,2.6,2.6c0.9-0.2,1.6-0.9,1.7-1.7c0.3-1.5-1-2.9-2.6-2.6C8.7,0.2,8,0.9,7.9,1.8z"/>
</g>
<g id="s2-slider-2-hint_1_">
	<path fill="#EDD99A" d="M-305.1-5.9c-0.3,1.5,1,2.9,2.6,2.6c0.9-0.2,1.6-0.9,1.7-1.7c0.3-1.5-1-2.9-2.6-2.6
		C-304.2-7.5-304.9-6.8-305.1-5.9z"/>
	<path fill="#EDD99A" d="M-289.5-5.9c-0.3,1.5,1,2.9,2.6,2.6c0.9-0.2,1.6-0.9,1.7-1.7c0.3-1.5-1-2.9-2.6-2.6
		C-288.6-7.5-289.3-6.8-289.5-5.9z"/>
	<path fill="#EDD99A" d="M-297.2-5.9c-0.3,1.5,1,2.9,2.6,2.6c0.9-0.2,1.6-0.9,1.7-1.7c0.3-1.5-1-2.9-2.6-2.6
		C-296.4-7.5-297.1-6.8-297.2-5.9z"/>
</g>
<path id="s2-slider-3-hint" fill="#EDD99A" d="M-299.1-56.5c-0.3,1.5,1,2.9,2.6,2.6c0.9-0.2,1.6-0.9,1.7-1.7c0.3-1.5-1-2.9-2.6-2.6
	C-298.2-58.1-298.9-57.4-299.1-56.5z"/>
</svg>
