<?xml version="1.0" encoding="utf-8"?>
<!-- Generator: Adobe Illustrator 18.0.0, SVG Export Plug-In . SVG Version: 6.00 Build 0)  -->
<!DOCTYPE svg PUBLIC "-//W3C//DTD SVG 1.1//EN" "http://www.w3.org/Graphics/SVG/1.1/DTD/svg11.dtd">
<svg version="1.1" id="Layer_1" xmlns="http://www.w3.org/2000/svg" xmlns:xlink="http://www.w3.org/1999/xlink" x="0px" y="0px"
	 viewBox="0 0 19.9 4.4" enable-background="new 0 0 19.9 4.4" xml:space="preserve">
<g id="s2-slider-1-hint">
	<path fill="#EDD99A" d="M305.2,9.4c-0.3,1.5,1,2.9,2.6,2.6c0.9-0.2,1.6-0.9,1.7-1.7c0.3-1.5-1-2.9-2.6-2.6
		C306,7.9,305.3,8.6,305.2,9.4z"/>
	<path fill="#EDD99A" d="M313,9.4c-0.3,1.5,1,2.9,2.6,2.6c0.9-0.2,1.6-0.9,1.7-1.7c0.3-1.5-1-2.9-2.6-2.6
		C313.8,7.9,313.1,8.6,313,9.4z"/>
</g>
<g id="s2-slider-2-hint_1_">
	<path fill="#EDD99A" d="M0,1.8c-0.3,1.5,1,2.9,2.6,2.6c0.9-0.2,1.6-0.9,1.7-1.7c0.3-1.5-1-2.9-2.6-2.6C0.9,0.2,0.2,0.9,0,1.8z"/>
	<path fill="#EDD99A" d="M15.6,1.8c-0.3,1.5,1,2.9,2.6,2.6c0.9-0.2,1.6-0.9,1.7-1.7c0.3-1.5-1-2.9-2.6-2.6
		C16.5,0.2,15.8,0.9,15.6,1.8z"/>
	<path fill="#EDD99A" d="M7.9,1.8c-0.3,1.5,1,2.9,2.6,2.6c0.9-0.2,1.6-0.9,1.7-1.7c0.3-1.5-1-2.9-2.6-2.6C8.7,0.2,8,0.9,7.9,1.8z"/>
</g>
<path id="s2-slider-3-hint" fill="#EDD99A" d="M6-48.8c-0.3,1.5,1,2.9,2.6,2.6c0.9-0.2,1.6-0.9,1.7-1.7c0.3-1.5-1-2.9-2.6-2.6
	C6.9-50.4,6.2-49.7,6-48.8z"/>
</svg>
