<?xml version="1.0" encoding="utf-8"?>
<!-- Generator: Adobe Illustrator 18.0.0, SVG Export Plug-In . SVG Version: 6.00 Build 0)  -->
<!DOCTYPE svg PUBLIC "-//W3C//DTD SVG 1.1//EN" "http://www.w3.org/Graphics/SVG/1.1/DTD/svg11.dtd">
<svg version="1.1" id="Layer_1" xmlns="http://www.w3.org/2000/svg" xmlns:xlink="http://www.w3.org/1999/xlink" x="0px" y="0px"
	 viewBox="0 0 4.4 4.4" enable-background="new 0 0 4.4 4.4" xml:space="preserve">
<g id="s2-slider-1-hint">
	<path fill="#EDD99A" d="M299.2,60c-0.3,1.5,1,2.9,2.6,2.6c0.9-0.2,1.6-0.9,1.7-1.7c0.3-1.5-1-2.9-2.6-2.6
		C300,58.5,299.3,59.2,299.2,60z"/>
	<path fill="#EDD99A" d="M307,60c-0.3,1.5,1,2.9,2.6,2.6c0.9-0.2,1.6-0.9,1.7-1.7c0.3-1.5-1-2.9-2.6-2.6
		C307.9,58.5,307.2,59.2,307,60z"/>
</g>
<g id="s2-slider-2-hint_1_">
	<path fill="#EDD99A" d="M-5.9,52.3c-0.3,1.5,1,2.9,2.6,2.6c0.9-0.2,1.6-0.9,1.7-1.7c0.3-1.5-1-2.9-2.6-2.6
		C-5.1,50.8-5.8,51.5-5.9,52.3z"/>
	<path fill="#EDD99A" d="M9.6,52.3c-0.3,1.5,1,2.9,2.6,2.6c0.9-0.2,1.6-0.9,1.7-1.7c0.3-1.5-1-2.9-2.6-2.6
		C10.5,50.8,9.8,51.5,9.6,52.3z"/>
	<path fill="#EDD99A" d="M1.9,52.3c-0.3,1.5,1,2.9,2.6,2.6C5.3,54.7,6,54,6.2,53.2c0.3-1.5-1-2.9-2.6-2.6
		C2.8,50.8,2.1,51.5,1.9,52.3z"/>
</g>
<path id="s2-slider-3-hint" fill="#EDD99A" d="M0,1.8c-0.3,1.5,1,2.9,2.6,2.6c0.9-0.2,1.6-0.9,1.7-1.7c0.3-1.5-1-2.9-2.6-2.6
	C0.9,0.2,0.2,0.9,0,1.8z"/>
</svg>
