<?xml version="1.0" encoding="utf-8"?>
<!-- Generator: Adobe Illustrator 18.0.0, SVG Export Plug-In . SVG Version: 6.00 Build 0)  -->
<!DOCTYPE svg PUBLIC "-//W3C//DTD SVG 1.1//EN" "http://www.w3.org/Graphics/SVG/1.1/DTD/svg11.dtd">
<svg version="1.1" id="Layer_1" xmlns="http://www.w3.org/2000/svg" xmlns:xlink="http://www.w3.org/1999/xlink" x="0px" y="0px"
	 viewBox="0 0 29.8 8.2" enable-background="new 0 0 29.8 8.2" xml:space="preserve">
<path id="s2-slider-3-hint" fill="#EDD99A" d="M-39.7-32.4c-0.3,1.5,1,2.9,2.6,2.6c0.9-0.2,1.6-0.9,1.7-1.7c0.3-1.5-1-2.9-2.6-2.6
	C-38.8-33.9-39.5-33.2-39.7-32.4z"/>
<g>
	<path fill="#455653" d="M76.4-37.8h3.4v-3.5h2.4v9h-2.4V-36h-3.4v3.7h-2.4v-9h2.4V-37.8z"/>
	<path fill="#455653" d="M90.8-33.9h-3.4l-0.5,1.6h-2.5l3.4-9h2.6l3.4,9h-2.5L90.8-33.9z M90.2-35.6l-1.1-3l-1.1,3H90.2z"/>
	<path fill="#455653" d="M103.6-32.3h-2.9l-2.2-3.5v3.5h-2.4v-9h3.7c0.5,0,0.9,0.1,1.3,0.2c0.4,0.1,0.7,0.4,0.9,0.6
		c0.2,0.3,0.4,0.6,0.6,0.9c0.1,0.3,0.2,0.7,0.2,1.1c0,0.7-0.2,1.2-0.5,1.7c-0.3,0.4-0.8,0.7-1.5,0.9L103.6-32.3z M98.4-37.3h0.4
		c0.5,0,0.8-0.1,1.1-0.3s0.4-0.5,0.4-0.8c0-0.4-0.1-0.6-0.4-0.8c-0.2-0.2-0.6-0.3-1.1-0.3h-0.4V-37.3z"/>
	<path fill="#455653" d="M105.8-41.3h3.5c0.6,0,1.2,0.1,1.7,0.4s1,0.6,1.4,1c0.4,0.4,0.7,0.9,1,1.4c0.2,0.5,0.3,1.1,0.3,1.7
		c0,0.6-0.1,1.2-0.3,1.7s-0.5,1-0.9,1.4c-0.4,0.4-0.9,0.7-1.4,1s-1.1,0.4-1.7,0.4h-3.5V-41.3z M108.2-34.3h0.5
		c0.4,0,0.8-0.1,1.1-0.2c0.3-0.1,0.6-0.3,0.8-0.5c0.2-0.2,0.4-0.5,0.5-0.8c0.1-0.3,0.2-0.6,0.2-1c0-0.4-0.1-0.7-0.2-1
		c-0.1-0.3-0.3-0.6-0.5-0.8c-0.2-0.2-0.5-0.4-0.8-0.5s-0.7-0.2-1.1-0.2h-0.5V-34.3z"/>
</g>
<path fill="#455653" d="M-65.3,31.9V41c0,0.4,0.3,0.7,0.7,0.7H62.6c0.4,0,0.7-0.3,0.7-0.7v-9.2c0-0.4-0.3-0.7-0.7-0.7l-127.2,0
	C-65,31.2-65.3,31.5-65.3,31.9z"/>
<g>
	<path fill="#455653" d="M3.5,0.1h1l0.2,8H3.9L3.8,1.4h0l-1.4,4L1,1.4h0L0.8,8.1H0l0.2-8h1l1.2,3.4L3.5,0.1z"/>
	<path fill="#455653" d="M13,4.1c0,1,0,4.1-2.2,4.1c-2.3,0-2.2-3.1-2.2-4.1C8.6,2.8,8.7,0,10.8,0C13,0,13,3,13,4.1z M9.4,4.1
		c0,2.2,0.3,3.4,1.4,3.4c1.4,0,1.4-2,1.4-3.4c0-1.5,0-3.3-1.4-3.3C9.4,0.8,9.4,2.9,9.4,4.1z"/>
	<path fill="#455653" d="M17,0.8V0.1h2.1c1.6,0,2.6,0.7,2.6,4c0,1.8-0.1,4-2.5,4H17V7.4h0.6V0.8H17z M18.5,7.4h0.7
		c1,0,1.7-0.3,1.7-3.3c0-3-0.8-3.3-1.5-3.3h-0.9V7.4z"/>
	<path fill="#455653" d="M25.9,0.1h3.9v0.7h-3.1v2.6h2.6v0.7h-2.6v3.2h3.1v0.7h-3.9V0.1z"/>
</g>
</svg>
